<mxfile host="65bd71144e">
    <diagram id="sO3x3uy_BBgyKqLa8RWT" name="Main Page">
        <mxGraphModel dx="699" dy="447" grid="1" gridSize="10" guides="1" tooltips="1" connect="1" arrows="1" fold="1" page="1" pageScale="1" pageWidth="850" pageHeight="1100" math="0" shadow="0">
            <root>
                <mxCell id="0"/>
                <mxCell id="1" parent="0"/>
                <mxCell id="2" value="Drive Team" style="rounded=0;whiteSpace=wrap;html=1;" vertex="1" parent="1">
                    <mxGeometry x="320" y="70" width="70" height="30" as="geometry"/>
                </mxCell>
                <mxCell id="3" value="Intake" style="whiteSpace=wrap;html=1;rounded=0;" vertex="1" parent="1">
                    <mxGeometry x="520" y="140" width="45" height="25" as="geometry"/>
                </mxCell>
                <mxCell id="5" value="Drive" style="whiteSpace=wrap;html=1;rounded=0;" vertex="1" parent="1">
                    <mxGeometry x="70" y="140" width="45" height="25" as="geometry"/>
                </mxCell>
                <mxCell id="8" value="Conveyor" style="whiteSpace=wrap;html=1;rounded=0;" vertex="1" parent="1">
                    <mxGeometry x="140" y="140" width="60" height="25" as="geometry"/>
                </mxCell>
                <mxCell id="10" value="Climber" style="whiteSpace=wrap;html=1;rounded=0;" vertex="1" parent="1">
                    <mxGeometry x="440" y="140" width="50" height="25" as="geometry"/>
                </mxCell>
                <mxCell id="11" value="Vision" style="whiteSpace=wrap;html=1;rounded=0;" vertex="1" parent="1">
                    <mxGeometry x="230" y="140" width="45" height="25" as="geometry"/>
                </mxCell>
                <mxCell id="15" value="Shooter" style="swimlane;fontSize=12;fillColor=none;" vertex="1" parent="1">
                    <mxGeometry x="210" y="200" width="320" height="200" as="geometry"/>
                </mxCell>
                <mxCell id="6" value="Turret" style="whiteSpace=wrap;html=1;rounded=0;" vertex="1" parent="15">
                    <mxGeometry x="25" y="100" width="45" height="25" as="geometry"/>
                </mxCell>
                <mxCell id="7" value="Flywheel" style="whiteSpace=wrap;html=1;rounded=0;" vertex="1" parent="15">
                    <mxGeometry x="125" y="100" width="55" height="25" as="geometry"/>
                </mxCell>
                <mxCell id="9" value="Feeder" style="whiteSpace=wrap;html=1;rounded=0;" vertex="1" parent="15">
                    <mxGeometry x="245" y="100" width="50" height="25" as="geometry"/>
                </mxCell>
            </root>
        </mxGraphModel>
    </diagram>
</mxfile>